<?xml version="1.0" encoding="utf-8"?>
<!-- Generator: Adobe Illustrator 27.9.0, SVG Export Plug-In . SVG Version: 6.00 Build 0)  -->
<svg version="1.1" id="Layer_1" xmlns="http://www.w3.org/2000/svg" xmlns:xlink="http://www.w3.org/1999/xlink" x="0px" y="0px"
	 viewBox="0 0 464.19 97.41" style="enable-background:new 0 0 464.19 97.41;" xml:space="preserve">
<style type="text/css">
	.st0{fill:#D92D27;}
	.st1{fill:#64676B;}
</style>
<g>
	<g>
		<path class="st0" d="M5.87,6.56h60l-6.36,17.52H26.75V42.8h27.36v17.52H26.75v30.24H5.87V6.56z M69.71,48.68
			c0-26.4,16.92-43.8,42.72-43.8c25.8,0,42.84,17.4,42.84,43.8c0,26.52-17.04,43.92-42.84,43.92C86.63,92.6,69.71,75.2,69.71,48.68z
			 M133.43,48.68c0-16.08-8.28-26.64-20.88-26.64c-12.72,0-21.12,10.56-21.12,26.64s8.4,26.64,21.12,26.64
			C125.15,75.32,133.43,64.76,133.43,48.68z M170.86,6.56h35.16c10.2,0,17.76,2.64,23.04,7.56c5.4,5.04,8.4,11.76,8.4,20.16
			c0,9-3.96,17.28-12.72,22.2l15.48,34.08h-22.44L206.02,60.8h-14.28v29.76h-20.88V6.56z M204.82,44.48
			c7.44,0,11.64-3.72,11.64-10.32s-4.2-10.08-11.64-10.08h-13.08v20.4H204.82z M246.1,6.56h22.56L288.1,67.4h0.48l19.8-60.84h21
			l-30.36,84h-22.44L246.1,6.56z M354.34,6.56h21.48l-30.36,84h-21.48L354.34,6.56z M380.98,64.16h20.28c0,6.72,4.08,12,15.24,12
			c10.92,0,13.44-5.4,13.44-8.88c0-5.52-3.96-8.04-19.2-11.76c-19.68-4.8-27.24-11.64-27.24-25.08c0-15.96,11.76-25.56,32.64-25.56
			c19.2,0,31.92,10.32,31.92,26.04h-20.28c0-6.48-4.56-10.2-12.6-10.2c-7.44,0-11.76,2.88-11.76,7.92c0,4.44,3.24,6.48,15.36,9.36
			c22.8,5.4,32.04,13.2,32.04,26.88c0,17.64-12.36,27.72-33.96,27.72C394.05,92.6,380.98,82.28,380.98,64.16z"/>
	</g>
	<g>
		<path class="st1" d="M460.32,10.53c0,2.66-2.16,4.83-4.83,4.83c-2.66,0-4.83-2.17-4.83-4.83c0-2.7,2.16-4.85,4.9-4.85
			C458.16,5.69,460.32,7.89,460.32,10.53z M451.35,10.53c0,2.3,1.86,4.19,4.13,4.19c2.28,0,4.13-1.88,4.13-4.19
			c0-2.3-1.85-4.2-4.08-4.2C453.2,6.33,451.35,8.18,451.35,10.53z M455.74,7.8c1.26,0,1.95,0.53,1.95,1.53
			c0,0.62-0.34,1.08-0.97,1.33c0.7,0.25,0.87,0.59,0.9,1.75c0.03,0.55,0.06,0.7,0.14,0.87h-0.84c-0.08-0.14-0.1-0.34-0.14-1.04
			c-0.04-0.66-0.13-0.92-0.38-1.09c-0.2-0.14-0.53-0.21-0.97-0.21h-1.13v2.34h-0.87V7.8H455.74z M454.3,10.39h1.19
			c0.9,0,1.33-0.34,1.33-1.02s-0.39-0.99-1.23-0.99h-1.29V10.39z"/>
	</g>
</g>
</svg>
