<svg xmlns="http://www.w3.org/2000/svg" version="1.1" xmlns:xlink="http://www.w3.org/1999/xlink" xmlns:svgjs="http://svgjs.dev/svgjs" width="308.7612359841165"
   height="304.915625" viewBox="0 0 2000 1250"><g transform="matrix(1,0,0,1,0,0)"><svg viewBox="0 0 576 360" data-background-color="#101010" preserveAspectRatio="xMidYMid meet" height="1250" width="2000" xmlns="http://www.w3.org/2000/svg" xmlns:xlink="http://www.w3.org/1999/xlink"><g id="tight-bounds" transform="matrix(1,0,0,1,0,0)"><svg viewBox="0 0 576 360" height="360" width="576"><g><svg></svg></g><g><svg viewBox="0 0 576 360" height="360" width="576"><g><path xmlns="http://www.w3.org/2000/svg" d="M132.115 90l155.885-90 155.885 90v180l-155.885 90-155.885-90zM146.725 261.565l141.275 81.566 141.275-81.566v-163.13l-141.275-81.566-141.275 81.566z" fill="#0064ed" fill-rule="nonzero" stroke="none" stroke-width="1" stroke-linecap="butt" stroke-linejoin="miter" stroke-miterlimit="10" stroke-dasharray="" stroke-dashoffset="0" font-family="none" font-weight="none" font-size="none" text-anchor="none" style="mix-blend-mode: normal" data-fill-palette-color="tertiary"></path></g><g transform="matrix(1,0,0,1,223.0511811023622,99)"><svg viewBox="0 0 129.89763779527559 162" height="162" width="129.89763779527559"><g><svg viewBox="0 0 129.89763779527559 162" height="162" width="129.89763779527559"><g><svg viewBox="0 0 129.89763779527559 162" height="162" width="129.89763779527559"><g><svg viewBox="0 0 129.89763779527559 162" height="162" width="129.89763779527559"><g id="textblocktransform"><svg viewBox="0 0 129.89763779527559 162" height="162" width="129.89763779527559" id="textblock"><g><svg viewBox="0 0 129.89763779527559 162" height="162" width="129.89763779527559"><g transform="matrix(1,0,0,1,0,0)"><svg width="129.89763779527559" viewBox="0.05000000447034836 -38.099998474121094 30.55000114440918 38.099998474121094" height="162" data-palette-color="#03bd9f"><path d="M8.7-36.25L8.7-36.25 30.15-36.25 9.55-5.25 30.6-5.25 30.6 0 0.05 0Q0.55-0.65 1.6-2.25 2.65-3.85 4.05-6.03 5.45-8.2 7.13-10.8 8.8-13.4 10.55-16.07 12.3-18.75 13.98-21.35 15.65-23.95 17.05-26.1 18.45-28.25 19.5-29.8 20.55-31.35 21.05-32L21.05-32 6.55-32Q5.75-32 4.98-32.23 4.2-32.45 3.6-32.85 3-33.25 2.63-33.85 2.25-34.45 2.25-35.2L2.25-35.2 2.25-38.1 7.15-38.1 7.15-37.4Q7.15-36.5 7.5-36.38 7.85-36.25 8.7-36.25Z" opacity="1" transform="matrix(1,0,0,1,0,0)" fill="#03bd9f" class="undefined-text-0" data-fill-palette-color="primary" id="text-0"></path></svg></g></svg></g></svg></g></svg></g><g></g></svg></g></svg></g></svg></g></svg></g><defs></defs></svg><rect width="576" height="360" fill="none" stroke="none" visibility="hidden"></rect></g></svg></g></svg>